# xmcd
#
# Track frame offsets:
#	150
#	18187
#	32122
#	46905
#	71590
#	89127
#	108147
#	132077
#	152730
#
# Disc length: 2289 seconds
#
# Revision: 7
# Processed by: cddbd v1.5.1PL0 Copyright (c) Steve Scherf et al.
# Submitted via: audiograbber 1.80
#
DISCID=6d08ef09
DTITLE=Dead Can Dance - Spleen and Ideal
DYEAR=1900
DGENRE=
TTITLE0=De Profundis (Out of the Depths of Sorrow)
TTITLE1=Ascension
TTITLE2=Circumradiant Dawn
TTITLE3=The Cardinal Sin
TTITLE4=Mesmerism
TTITLE5=Enigma of the Absolute
TTITLE6=Advent
TTITLE7=Avatar
TTITLE8=Indoctrination (A Design for Living)
EXTD=4AD Records, CAD 512 CD\n(P) 1985
EXTT0=
EXTT1=
EXTT2=
EXTT3=
EXTT4=
EXTT5=
EXTT6=
EXTT7=
EXTT8=
PLAYORDER=
